<?xml version="1.0" standalone="no" ?>
<!DOCTYPE svg PUBLIC "-//W3C//DTD SVG 1.1//EN" "http://www.w3.org/Graphics/SVG/1.1/DTD/svg11.dtd">
<svg x="0" y="0" width="800" height="800" viewBox="0 0 800 800" xmlns="http://www.w3.org/2000/svg" xmlns:xlink="http://www.w3.org/1999/xlink" version="1.1">
	<title>柱状分布图</title>
	<!-- 横向柱状图 -->
	<svg x="10" y="10" width="400" height="200" viewBox="0 0 400 200">
		<rect x="0" y="0" width="399" height="199" style="fill: none; stroke: red;"/>
		<svg x="50" y="0" width="400" height="200" viewBox="0 0 400 200">
		<!-- 
		垂直轴 
			1、延伸效果规则：假设垂直轴的长度为100， 让x轴或y轴向负轴的方向延伸 增加视觉效果 按照 %10 && 小于一个给定的特定值 的比例延伸
			2、方向取点规则：点数按照最大值划分 根据传递的 值-对数量均分{{第一名：200},{第二名: 300}, {最后一名：1000}} 这里有3个项目，
							那么需要均分拆成4个点 100/4 项目间隔为 25 
		-->
		<line x1="10" y1="0" x2="10" y2="110" style="fill: none; stroke: gray; stroke-width: 0.5;"/>
			<line x1="5" y1="75" x2="10" y2="75" style="fill: none; stroke: gray; stroke-width: 0.5;"/>
			<!--<text x="5" y="78" style="fill: gray; font-size: 9; text-anchor: end;">第一名</text>-->
			<line x1="5" y1="50" x2="10" y2="50" style="fill: none; stroke: gray; stroke-width: 0.5;"/>
			<!--<text x="5" y="53" style="fill: gray; font-size: 9; text-anchor: end;">第二名</text>-->
			<line x1="5" y1="25" x2="10" y2="25" style="fill: none; stroke: gray; stroke-width: 0.5;"/>
			<!--<text x="5" y="28" style="fill: gray; font-size: 9; text-anchor: end;">最后一名</text>-->
		<!-- 
		水平轴 
			1、在所给的值中 找到最大的值， 然后算百分百 然后 在乘上水平轴的长度 
				分别是  200/1000 * 200 = 40; 300/1000 * 200 = 60;  1000/1000 * 200 = 200;
		-->
		<line x1="0" y1="100" x2="210" y2="100" style="fill: none; stroke: gray; stroke-width: 0.5;"/>
			<text x="220" y="120" style="fill: gray; font-size: 9; text-anchor: end;">人数</text>
			<!--<line x1="10" y1="75" x2="50" y2="75" style="fill: blue; stroke: gray; stroke-width: 10;"/>-->
			<rect x="10" y="70" width="40" height="10" style="fill: yellow; stroke: blue;"/>
			<text x="55" y="78" style="fill: gray; font-size: 9; text-anchor: start;">200</text>
			<!--<line x1="10" y1="50" x2="70" y2="50" style="fill: blue; stroke: gray; stroke-width: 10;"/>-->
			<rect x="10" y="45" width="60" height="10" style="fill: yellow; stroke: blue;"/>
			<text x="75" y="53" style="fill: gray; font-size: 9; text-anchor: start;">300</text>
			<!--<line x1="10" y1="25" x2="210" y2="25" style="fill: blue; stroke: gray; stroke-width: 10;"/>-->
			<rect x="10" y="20" width="200" height="10" style="fill: yellow; stroke: blue;"/>
			<text x="215" y="28" style="fill: gray; font-size: 9; text-anchor: start;">1000</text>
		</svg>
		<svg x="0" y="0" width="400" height="200" viewBox="0 0 400 200">
			<text x="50" y="78" style="fill: gray; font-size: 9; text-anchor: end;">第一名</text>
			<text x="50" y="53" style="fill: gray; font-size: 9; text-anchor: end;">第二名</text>
			<text x="50" y="28" style="fill: gray; font-size: 9; text-anchor: end;">最后一名</text>		
		</svg>
	</svg>
	
	<!-- 纵向柱状图 -->
	<svg x="10" y="300" width="400" height="400" viewBox="0 0 400 400">
		<rect x="0" y="0" width="399" height="399" style="fill: none; stroke: red;"/>
		<svg x="50" y="0" width="400" height="400" viewBox="0 0 400 400">
		<!-- 
		垂直轴
			1、在所给的值中 找到最大的值， 然后算百分百 然后 在乘上水平轴的长度 
				分别是  200/1000 * 200 = 40; 300/1000 * 200 = 60;  1000/1000 * 200 = 200;
		-->
		<line x1="20" y1="0" x2="20" y2="210" style="fill: none; stroke: gray; stroke-width: 0.5;"/>
			<text x="10" y="0" style="fill: gray; font-size: 9; text-anchor: start; writing-mode: tb;">人数</text>
			<!--<line x1="10" y1="75" x2="50" y2="75" style="fill: blue; stroke: gray; stroke-width: 10;"/>-->
			<rect x="40" y="160" width="10" height="40" style="fill: yellow; stroke: blue;"/>
			<text x="35" y="155" style="fill: gray; font-size: 9; text-anchor: start;">200</text>
			<!--<line x1="10" y1="50" x2="70" y2="50" style="fill: blue; stroke: gray; stroke-width: 10;"/>-->
			<rect x="85" y="140" width="10" height="60" style="fill: yellow; stroke: blue;"/>
			<text x="80" y="135" style="fill: gray; font-size: 9; text-anchor: start;">300</text>
			<!--<line x1="10" y1="25" x2="210" y2="25" style="fill: blue; stroke: gray; stroke-width: 10;"/>-->
			<rect x="130" y="20" width="10" height="180" style="fill: yellow; stroke: blue;"/>
			<text x="125" y="15" style="fill: gray; font-size: 9; text-anchor: start;">1000</text>		
		<!-- 
		水平轴
			1、延伸效果规则：假设垂直轴的长度为100， 让x轴或y轴向负轴的方向延伸 增加视觉效果 按照 %10 && 小于一个给定的特定值 的比例延伸
			2、方向取点规则：点数按照最大值划分 根据传递的 值-对数量均分{{第一名：200},{第二名: 300}, {最后一名：1000}} 这里有3个项目，
							那么需要均分拆成4个点 180/4 项目间隔为 45 		
		-->
		<line x1="0" y1="200" x2="180" y2="200" style="fill: none; stroke: gray; stroke-width: 0.5;"/>
			<line x1="45" y1="200" x2="45" y2="205" style="fill: none; stroke: gray; stroke-width: 0.5;"/>
			<text x="45" y="210" style="fill: gray; font-size: 9; text-anchor: start; writing-mode:tb;">第一名</text>
			<line x1="90" y1="200" x2="90" y2="205" style="fill: none; stroke: gray; stroke-width: 0.5;"/>
			<text x="90" y="210" style="fill: gray; font-size: 9; text-anchor: start; writing-mode:tb;">第二名</text>
			<line x1="135" y1="200" x2="135" y2="205" style="fill: none; stroke: gray; stroke-width: 0.5;"/>
			<text x="135" y="210" style="fill: gray; font-size: 9; text-anchor: start; writing-mode:tb;">最后一名</text>		
		</svg>
	</svg>	
</svg>