<?xml version="1.0" standalone="no" ?>
<?xml-stylesheet href="ext_style.css" type="text/css"?>
<!DOCTYPE svg PUBLIC "-//W3C//DTD SVG 1.1//EN" "http://www.w3.org/Graphics/SVG/1.1/DTD/svg11.dtd">
<svg width="800" height="800" viewBox="0 0 800 800" xmlns="http://www.w3.org/2000/svg" xmlns:xlink="http://www.w3.org/1999/xlink" version="1.1">
	<title>SVG的文档化</title>
	<svg width="100" height="100" viewBox="0 0 100 100">
		<defs>
		<style type="text/css"><![CDATA[
			circle.test1{
				fill: #ffc;
				stroke: blue;
				stroke-width: 2;
				stroke-dasharray: 5 3;
			}
		]]></style>
		</defs>
		
		<circle class="test1" cx="20" cy="20" r="10"/>
		<circle class="test1" cx="60" cy="20" r="15" fill="green;"/>
		<circle class="test1" cx="20" cy="60" r="10" style="fill: #cfc;"/>
		<circle class="test1" cx="60" cy="60" r="15" style="stroke-width: 1; stroke-dasharray: none;"/>
		<text x="0" y="50">内部样式表</text>
	</svg>
	
	<svg x="100" width="200" height="100" viewBox="0 0 200 100">
		<line class="test2" x1="10" y1="10" x2="40" y2="10"/>
		<rect class="test2" x="10" y="20" width="40" height="30"/>
		<circle class="test2 yellow" cx="70" cy="20" r="10"/>
		<polygon class="test2 thick" points="60 50, 60 80, 90 80"/>
		<polygon class="test2 thick semiblue" points="100 30, 150 30, 150 50, 130 50"/>
		<text x="0" y="50">外部样式表</text>
	</svg>
	
	<svg x="0" y="100" width="150" height="120" viewBox="0 0 150 120">
		<g id="house" style="fill: none; stroke: black;">
			<desc>House with door</desc>
			<rect x="6" y="50" width="60" height="60"/>
			<polyline points="6 50, 36 9, 66 50"/>
			<polyline points="36 110, 36 80, 50 80, 50 110"/>
		</g>
		<g id="man" style="fill: none; stroke: black;">
			<desc>Male human</desc>
			<circle cx="85" cy="56" r="10"/>
			<line x1="85" y1="66" x2="85" y2="80"/>
			<polyline points="76 104, 85 80, 94 104"/>
			<polyline points="76 70, 85 76, 94 70"/>
		</g>
		<g id="woman" style="fill: none; stroke: black;">
			<desc>Female human</desc>
			<circle cx="110" cy="56" r="10"/>
			<polyline points="110 66, 110 80, 100 90, 120 90, 110 80"/>
			<line x1="104" y1="104" x2="108" y2="90"/>
			<line x1="112" y1="90" x2="116" y2="104"/>
			<polyline points="101 70, 110 76, 119 70"/>
		</g>
		<text x="0" y="80">g分组元素</text>
	</svg>
	<svg x="160" y="100" width="150" height="120" viewBox="0 0 150 120">
		<use xlink:href="#house" x="55"/>
		<use xlink:href="#woman" x="-95"/>
		<use xlink:href="#man" x="-45"/>
		<text x="0" y="80">use引用元素</text>
	</svg>
	<svg x="0" y="220" width="400" height="150" viewBox="0 0 400 150">
		<defs>
		<g id="ehouse" style="stroke: black;">
			<desc>House with door</desc>
			<rect x="0" y="41" width="60" height="60"/>
			<polyline points="0 41, 30 0, 60 41"/>
			<polyline points="30 101, 30 71, 44 71, 44 101"/>
		</g>
		<g id="eman" style="fill: none; stroke: black;">
			<desc>Male human</desc>
			<circle cx="10" cy="10" r="10"/>
			<line x1="10" y1="20" x2="10" y2="44"/>
			<polyline points="1 58, 10 44, 19 58"/>
			<polyline points="1 24, 10 30, 19 24"/>
		</g>
		<g id="ewoman" style="fill: none; stroke: black;">
			<desc>Female human</desc>
			<circle cx="10" cy="10" r="10"/>
			<polyline points="10 20, 10 34, 0 44, 20 44, 10 34"/>
			<line x1="4" y1="58" x2="8" y2="44"/>
			<line x1="12" y1="44" x2="16" y2="58"/>
			<polyline points="1 24, 10 30, 19 24"/>
		</g>		
		<g id="couple">
			<use xlink:href="#eman" x="0" y="0"/>
			<use xlink:href="#ewoman" x="25" y="0"/>
		</g>
		</defs>
		<use xlink:href="#ehouse" x="0" y="0" style="fill: #cfc;"/>
		<use xlink:href="#couple" x="70" y="40"/>
		<use xlink:href="#ehouse" x="120" y="0" style="fill: blue;"/>
		<use xlink:href="#couple" x="190" y="40"/>
		<text x="0" y="80">defs模板元素</text>
	</svg>
	<svg x="300" y="100" width="400" height="400" vieBose="0 0 400 400">
		<ellipse cx="154" cy="154" rx="150" ry="120" style="fill: #999999;"/>
		<ellipse cx="152" cy="152" rx="150" ry="120" style="fill: #cceeff;"/>
		<image xlink:href="svg-img-01.png" width="170" height="200" x="65" y="52"/>
	</svg>
</svg>
