<?xml version="1.0" standalone="no" ?>
<!DOCTYPE svg PUBLIC "-//W3C//DTD SVG 1.1//EN" "http://www.w3.org/Graphics/SVG/1.1/DTD/svg11.dtd">
<svg width="800" height="800" viewBox="0 0 800 800" xmlns="http://www.w3.org/2000/svg" xmlns:xlink="http://www.w3.org/1999/xlink" version="1.1">
	<title>图案和渐变</title>
	<!-- 图案 -->
	<svg x="0" y="0" width="400" height="200" viewBox="0 0 400 200">
		<defs>
		<pattern id="tile" x="0" y="0" width="20%" height="20%" patternUnits="objectBoundingBox">
			<path d="M 0 0 Q 5 20 10 10 T 20 20" style="stroke: black; fill: none;"/>
			<path d="M 0 0 h20v20h-20z" style="stroke: gray; fill: none;"/>
		</pattern>
		</defs>
		
		<rect x="20" y="20" width="100" height="100" style="fill: url(#tile); stroke: black;"/>
		<rect x="135" y="20" width="70" height="80" style="fill: url(#tile); stroke: black;"/>
		<rect x="220" y="20" width="150" height="130" style="fill: url(#tile); stroke: black;"/>
	</svg>

	<svg x="400" y="0" width="400" height="200" viewBox="0 0 400 200">
		<defs>
		<pattern id="tile" x="0" y="0" width="20" height="20" patternUnits="userSpaceOnUse">
			<path d="M 0 0 Q 5 20 10 10 T 20 20" style="stroke: black; fill: none;"/>
			<path d="M 0 0 h20v20h-20z" style="stroke: gray; fill: none;"/>
		</pattern>
		</defs>
		
		<rect x="20" y="20" width="100" height="100" style="fill: url(#tile); stroke: black;"/>
		<rect x="135" y="20" width="70" height="80" style="fill: url(#tile); stroke: black;"/>
		<rect x="220" y="20" width="150" height="130" style="fill: url(#tile); stroke: black;"/>
	</svg>
	
	<svg x="0" y="200" width="400" height="200" viewBox="0 0 400 200">
		<defs>
		<pattern id="tile" patternUnits="objectBoundingBox" patternContentUnits="objectBoundingBox"
				x="0" y="0" width=".2" height=".2">
			<path d="M 0 0 Q .05 .20 .10 .10 T .20 .20" style="stroke: black; fill: none; stroke-width: 0.01;"/>
			<path d="M 0 0 h 0.2 v 0.2 h-0.2z" style="stroke: black; fill: none; stroke-width: 0.01;"/>
		</pattern>
		</defs>
		<g transform="translate(20, 20)">
			<rect x="0" y="0" width="100" height="100" style="fill: url(#tile); stroke: black;"/>
		</g>
		<g transform="translate(135, 20)">
			<rect x="0" y="0" width="70" height="80" style="fill: url(#tile); stroke: black;"/>
		</g>
		<g transform="translate(220, 20)">
			<rect x="0" y="0" width="150" height="130" style="fill: url(#tile); stroke: black;"/>
		</g>
	</svg>
	
	<svg x="400" y="200" width="400" height="200" viewBox="0 0 400 200">
		<defs>
		<pattern id="stripe" patternUnits="userSpaceOnUse"
				x="0" y="0" width="6" height="6">
			<path d="M 0 0 6 0" style="stroke: black; fill: none;"/>
		</pattern>
		<pattern id="polkadot" patternUnits="userSpaceOnUse"
				x="0" y="0" width="36" height="36">
			<circle cx="12" cy="12" r="12" style="fill: url(#stripe); stroke: black;"/>
		</pattern>
		</defs>
		<rect x="36" y="36" width="100" height="100" style="fill: url(#polkadot); stroke: black;"/>
	</svg>
	
	<!-- 渐变 -->
	<svg x="0" y="400" width="250" height="200" viewBox="0 0 250 200">
		<defs>
		<linearGradient id="two_hues">
			<stop offset="0%" style="stop-color: #fc0;"/>
			<stop offset="100%" style="stop-color: #09c;"/>
		</linearGradient>
		<linearGradient id="three_hues">
			<stop offset="0%" style="stop-color: #fc0; stop-opacity: 0.3;"/>
			<stop offset="33.3%" style="stop-color: #c69; stop-opacity: 0.1;"/>
			<stop offset="100%" style="stop-color: #6c9;"/>
		</linearGradient>
		</defs>
		<rect x="10" y="10" width="200" height="40" style="fill: url(#two_hues); stroke: none;"/>
		<rect x="10" y="70" width="200" height="40" style="fill: url(#three_hues); stroke: none;"/>
	</svg>
	
	<svg x="260" y="400" width="400" height="300" viewBox="0 0 400 300">
		<defs>
		<linearGradient id="three_stops">
			<stop offset="0%" style="stop-color: #fc0;"/>
			<stop offset="33.3%" style="stop-color: #c69;"/>
			<stop offset="100%" style="stop-color: #6c9;"/>
		</linearGradient>
		</defs>
		<rect x="40" y="20" width="200" height="40" style="fill: url(#three_stops); stroke: black;"/>
		
		<linearGradient id="right_to_left" xlink:href="#three_stops" x1="100%" y1="0%" x2="0%" y2="0%"/>
		<rect x="40" y="70" width="200" height="40" style="fill: url(#right_to_left); stroke: black;"/>
		
		<linearGradient id="down" xlink:href="#three_stops" x1="0%" y1="0%" x2="0%" y2="100%"/>
		<rect x="250" y="20" width="40" height="200" style="fill:url(#down); stroke: black;"/>
		
		<linearGradient id="up" xlink:href="#three_stops" x1="0%" y1="100%" x2="0%" y2="0%"/>
		<rect x="300" y="20" width="40" height="200" style="fill: url(#up); stroke: black;"/>
		
		<linearGradient id="diagonal" xlink:href="#three_stops" x1="0%" y1="0%" x2="100%" y2="100%"/>
		<rect x="40" y="120" width="200" height="100" style="fill: url(#diagonal); stroke: black;"/>
	</svg>
	
	<svg x="0" y="650" width="350" height="130" viewBox="0 0 350 130">
		<defs>
		<linearGradient id="partial" x1="20%" y1="30%" x2="40%" y2="80%">
			<stop offset="0%" style="stop-color: #fc0;"/>
			<stop offset="33.3%" style="stop-color: #c69;"/>
			<stop offset="100%" style="stop-color: #6c9;"/>
		</linearGradient>
		<!-- pad, 起始和结束渐变点会扩展到对象的边缘 -->
		<linearGradient id="padded" xlink:href="#partial" spreadMethod="pad"/>
		<!-- repeat, 渐变会重复起点到终点的过程， 直到填充满整个对象 -->
		<linearGradient id="repeated" xlink:href="#partial" spreadMethod="repeat"/>
		<!-- reflect, 渐变会按终点到起点， 起点到终点的排列重复， 直到填充满整个对象 -->
		<linearGradient id="reflected" xlink:href="#partial" spreadMethod="reflect"/>
		<line id="show-line" x1="20" y1="30" x2="40" y2="80" style="stroke: white;"/>
		</defs>
		
		<rect x="20" y="20" width="100" height="100" style="fill: url(#padded); stroke: black;"/>
		<use xlink:href="#show-line" transform="translate(20, 20)"/>
		
		<rect x="130" y="20" width="100" height="100" style="fill: url(#repeated); stroke: black;"/>
		<use xlink:href="#show-line" transform="translate(130, 20)"/>
		
		<rect x="240" y="20" width="100" height="100" style="fill: url(#reflected); stroke: black;"/>
		<use xlink:href="#show-line" transform="translate(240, 20)"/>
	</svg>
	
	<svg x="360" y="650" width="350" height="150" viewBox="0 0 350 150">
		<defs>
		<radialGradient id="three_stops">
			<stop offset="0%" style="stop-color: #f96;"/>
			<stop offset="50%" style="stop-color: #9c9;"/>
			<stop offset="100%" style="stop-color: #906;"/>
		</radialGradient>
		</defs>
		<rect x="20" y="20" rx="4" ry="4" width="100" height="100" style="fill: url(#three_stops); stroke: none;"/>
		
		<defs>
		<radialGradient id="center_origin" cx="0%" cy="0%" r="141%">
			<stop offset="0%" style="stop-color: #f96;"/>
			<stop offset="50%" style="stop-color: #9c9;"/>
			<stop offset="100%" style="stop-color: #906;"/>
		</radialGradient>
		</defs>
		<rect x="130" y="20" width="100" height="100" style="fill: url(#center_origin); stroke: none;"/>
		
		<defs>
		<radialGradient id="focal_set" cx="0%" cy="0%" r="100%" fx="50%" fy="50%">`
			<stop offset="0%" style="stop-color: #f96;"/>
			<stop offset="50%" style="stop-color: #9c9;"/>
			<stop offset="100%" style="stop-color: #906;"/>		
		</radialGradient>
		</defs>
		<rect x="240" y="20" width="100" height="100" style="fill: url(#focal_set); stroke: none;"/>
	</svg>
</svg>
