<?xml version="1.0" standalone="no" ?>
<!DOCTYPE svg PUBLIC "-//W3C//DTD SVG 1.1//EN" "http://www.w3.org/Graphics/SVG/1.1/DTD/svg11.dtd">
<svg width="800" height="800" viewBox="0 0 800 800" xmlns="http://www.w3.org/2000/svg" xmlns:xlink="http://www.w3.org/1999/xlink" version="1.1">
	<title>SVG坐标系统变换</title>
	<svg width="100" height="100" viewBox="0 0 100 100">
		<g id="square">
			<rect x="0" y="0" width="20" height="20" style="fill: black; stroke-width: 2;"/>
		</g>
		<use xlink:href="#square" x="50" y="50"/>
		<use xlink:href="#square" transform="translate(25 25)"/>
	</svg>
	
	<svg x="100" y="0" width="100" height="100" viewBox="0 0 100 100">
		<g id="square2">
			<rect x="0" y="0" width="20" height="20" style="fill: none; stroke:black; stroke-width: 2;"/>
		</g>
		<use xlink:href="#square2" transform="translate(50, 50)"/>
	</svg>
	
	<svg x="200" y="0" width="100" height="100" viewBox="0 0 100 100">
		<g id="square3">
			<rect x="0" y="0" width="20" height="20" style="fill: none; stroke-width: 2;"/>
		</g>
		<use xlink:href="#square3" transform="scale(2)" style="stroke: blue;"/>
		<use xlink:href="#square3" transform="scale(3, 1.5)" style="stroke: red;"/>
	</svg>
	
	<svg x="300" y="0" width="100" height="100" viewBox="0 0 100 100">
		<g id="group1" transform="translate(3,5)">
			<line x1="10" y1="10" x2="30" y2="30" style="fill: none; stroke: black;"/>
			<circle cx="20" cy="20" r="10" style="fill: none; stroke: red;"/>
		</g>
		
		<rect x="15" y="20" width="10" height="5" transform="scale(3)" style="fill: none; stroke: black;"/>
	</svg>
	
	<svg x="0" y="100" width="100" height="100" viewBox="0 0 100 100">
		<line x1="0" y1="0" x2="100" y2="0" style="stroke: black;"/>
		<line x1="0" y1="0" x2="0" y2="100" style="stroke: black;"/>
		<line x1="45" y1="0" x2="45" y2="100" style="stroke: black;"/>
		<line x1="0" y1="60" x2="100" y2="60" style="stroke: black;"/>
		<rect x="15" y="20" width="10" height="5" transform="scale(3)" style="fill: none; stroke: black;"/>
	</svg>
	
	<svg x="100" y="100" width="200" height="100" viewBox="0 0 200 100">
		<line x1="0" y1="0" x2="0" y2="100" style="stroke: gray;"/>
		<line x1="0" y1="0" x2="100" y2="0" style="stroke: gray;"/>
		<rect x="10" y="10" height="15" width="20" transform="translate(30, 20) scale(2)" style="fill: gray;"/>
		<rect x="10" y="10" height="15" width="20" transform="scale(2) translate(30, 20)" style="fill: black;"/>
	</svg>
	
	<svg x="300" y="100" width="200" height="200" viewBox="0 0 200 200">
		<g transform="translate(0, 100) scale(1, -1)">
			<line x1="0" y1="0" x2="100" y2="0" style="stroke: black;"/>
			<line x1="0" y1="0" x2="0" y2="100" style="stroke: black;"/>
			<polygon points="40 40, 100 40, 70 70, 40 70" style="fill: gray; stroke: black;"/>
		</g>
	</svg>
	
	<!-- 围绕远点旋转 -->
	<svg x="0" y="250" width="100" height="100" viewBox="0 0 100 100">
		<polyline points="100 0, 0 0, 0 100" style="fill: none;stroke: black;"/>
		<rect x="70" y="30" width="20" height="20" style="fill: gray;"/>
		<rect x="70" y="30" width="20" height="20" style="fill: red;" transform="rotate(45)"/>
	</svg>
	
	<!-- 围绕中心点旋转 -->
	<svg x="100" y="250" width="200" height="200" viewBox="0 0 200 200">
		<circle cx="50" cy="50" r="3" style="fill: black;"/>
		<g id="arrow" style="stroke: black;">
			<line x1="60" y1="50" x2="90" y2="50"/>
			<polygon points="90 50, 85 45, 85 55"/>
		</g>
		<use xlink:href="#arrow" transform="rotate(45, 50, 50)"/>
		<use xlink:href="#arrow" transform="rotate(-90, 50, 50)"/>
		<use xlink:href="#arrow" transform="rotate(-150, 50, 50)"/>
	</svg>
	
	<!-- 围绕中心点缩放 -->
	<svg x="200" y="250" width="100" height="100" viewBox="0 0 100 100">
		<circle cx="50" cy="50" r="2" style="fill: black; stroke: black;"/>
		<g id="box" style="stroke: black; fill: none;">
			<rect x="35" y="40" width="30" height="20"/>
		</g>
		<use xlink:href="#box" transform="scale(2) translate(-25, -25)"/>
		<use xlink:href="#box" transform="scale(2.5) translate(-30, -30)"/>
	</svg>
	
	<!-- skewX 和 skewY-->
	<svg x="300" y="250" width="200" height="400" viewBox="0 0 200 400">
		<g style="stroke: gray; stroke-dasharray: 4 4;">
			<line x1="0" y1="0" x2="200" y2="0"/>
			<line x1="20" y1="0" x2="20" y2="90"/>
			<line x1="120" y1="0" x2="120" y2="90"/>
		</g>
		
		<g transform="translate(20, 0)">
			<g transform="skewX(30)">
				<polyline points="50 0, 0 0, 0 50" style="fill: none; stroke: black; stroke-width: 2;"/>
				<text x="0" y="60">skewX</text>
			</g>
		</g>
		
		<g transform="translate(120, 0)">
			<g transform="skewY(30)">
				<polyline points="50 0, 0 0, 0 50" style="fill: none; stroke: black; stroke-width: 2;"/>
				<text x="0" y="60">skewY</text>
			</g>
		</g>
	</svg>
</svg>
